<svg id="Layer_1_1_" enable-background="new 0 0 64 64" height="512" viewBox="0 0 64 64" width="512" xmlns="http://www.w3.org/2000/svg"><path d="m42 3c4.418 0 8 3.582 8 8v7.704c0 6.752 1.721 13.393 5 19.296l-3.518-2.559c-2.921-2.124-5.529-4.63-7.759-7.441l-7.723-22.291c1.465-1.661 3.61-2.709 6-2.709z" fill="#ab5a32"/><path d="m36 5.709c.53-.6 1.151-1.117 1.837-1.537 5.252.918 9.163 5.694 9.163 11.193v4.635 6c0 1.639-.368 3.19-1.012 4.587-.788-.834-1.553-1.689-2.266-2.587z" fill="#914c2a"/><path d="m35.387 13.099c.988 4.03 3.852 7.317 7.612 8.891v.01 4.635c0 6.057-4.738 11.252-10.794 11.363-6.168.113-11.205-4.854-11.205-10.998v-4h1c6.305 0 11.634-4.17 13.387-9.901z" fill="#fce0b9"/><path d="m32 5c7.18 0 13 5.82 13 13v5h-2v-1c0-.003 0-.007 0-.01-3.76-1.575-6.625-4.861-7.612-8.891-1.754 5.731-7.083 9.901-13.388 9.901h-1-2v-5c0-7.18 5.82-13 13-13z" fill="#914c2a"/><path d="m32 11c6.072 0 10.994 4.92 11 10.99-3.76-1.575-6.625-4.861-7.612-8.891-1.754 5.731-7.083 9.901-13.388 9.901h-1c0-2.992.946-5.758 2.545-8.034 2.018-2.422 5.056-3.966 8.455-3.966z" fill="#ab5a32"/><path d="m36.563 37c-1.391.636-2.933 1-4.563 1s-3.172-.364-4.563-1h-.437v2.179.821 1.179l5 6 5-6v-1.179-.821-2.179z" fill="#fce0b9"/><path d="m27 39.79v-2.79h.437c1.391.636 2.933 1 4.563 1s3.172-.364 4.563-1h.437v2.79c-1.501.768-3.198 1.21-5 1.21s-3.499-.442-5-1.21z" fill="#f5cba1"/><path d="m44.5 23c1.381 0 2.5 1.119 2.5 2.5s-1.119 2.5-2.5 2.5h-1.5v-5z" fill="#fce0b9"/><path d="m19.5 23h1.5v5h-1.5c-1.381 0-2.5-1.119-2.5-2.5s1.119-2.5 2.5-2.5z" fill="#fce0b9"/><path d="m32 5c7.18 0 13 5.82 13 13v2c0-7.18-5.82-13-13-13s-13 5.82-13 13v-2c0-7.18 5.82-13 13-13z" fill="#ab5a32"/><path d="m22 23c5.816 0 10.793-3.551 12.908-8.599.342.094.677.203 1.005.328 1.216 3.106 3.595 5.612 6.597 7.021.316 1.024.488 2.112.489 3.24-3.76-1.575-6.625-4.861-7.612-8.891-1.753 5.731-7.082 9.901-13.387 9.901h-1c0-1.031.12-2.033.333-3z" fill="#f5cba1"/><path d="m12 33c0-1.105.895-2 2-2v-4h-2-2v4c1.105 0 2 .895 2 2z" fill="#a8a8a8"/><path d="m27 39.179-3.947 2.871s.948 6.129 2.947 9.129l6-4-5-6z" fill="#71caf0"/><path d="m41 42.089-4-2.911v2l-5 6 6 4c2-2.999 3-9.089 3-9.089z" fill="#71caf0"/><path d="m12 33c0 1.105-.895 2-2 2v7c0 1.105.895 2 2 2s2-.895 2-2v-7c-1.105 0-2-.895-2-2z" fill="#a8a8a8"/><path d="m47 53c-1.061-1.264-1.775-4.786-1.955-5.752-.031-.164-.045-.326-.045-.493v-.62c0-.727.289-1.424.803-1.938.248-.248.543-.419.854-.553-1.654-.982-3.585-1.554-5.656-1.554 0 0-1 6.089-3 9.089l-6-4v13.821h12 5c-.001 0-.322-6-2.001-8z" fill="#71caf0"/><path d="m32.206 37.998c4.892-.09 8.921-3.499 10.29-7.998h-21.07c1.325 4.678 5.657 8.092 10.78 7.998z" fill="#fff"/><path d="m12 33c0 1.105.895 2 2 2h1c1.105 0 2-.895 2-2s-.895-2-2-2h-1c-1.105 0-2 .895-2 2z" fill="#489abd"/><path d="m60.198 44.198c-.734-.734-1.819-.99-2.804-.662l-3.527 1.176c-.562.187-1.17.187-1.733 0l-3.527-1.176c-.652-.217-1.341-.156-1.95.108-.31.135-.606.306-.854.553-.514.514-.803 1.211-.803 1.938v.62c0 .167.014.329.045.493.18.966.894 4.488 1.955 5.752 1.679 2 2 8 2 8l3.106-6.211c.369-.737 1.42-.737 1.789 0l3.105 6.211s.357-6.107 2-8c1.085-1.25 1.785-4.802 1.958-5.76.029-.159.042-.316.042-.477v-.628c0-.727-.289-1.424-.802-1.937z" fill="#fff"/><circle cx="12" cy="13" fill="#71caf0" r="4"/><path d="m49 51.605c-1.061-1.264-1.775-4.786-1.955-5.752-.031-.164-.045-.326-.045-.493v-.62c0-.456.125-.894.336-1.288-.233.039-.462.097-.68.192-.31.135-.606.306-.854.553-.513.514-.802 1.211-.802 1.938v.62c0 .167.014.329.045.493.18.966.894 4.488 1.955 5.752 1.679 2 2 8 2 8l1.786-3.573c-.25-1.925-.767-4.608-1.786-5.822z" fill="#e3e3e3"/><path d="m55.894 53.394c-.369-.737-1.42-.737-1.789 0l-.52 1.04c.123.089.232.202.309.355l3.106 6.211s.127-2.128.567-4.261z" fill="#e3e3e3"/><path d="m10 31h-3.573c-1.814 0-3.214 1.598-2.974 3.396l1.28 9.604h5.267v-9c1.105 0 2-.895 2-2s-.895-2-2-2z" fill="#489abd"/><path d="m26 51.179c-2-3-2.947-9.129-2.947-9.129l.015-.011-.068-.039h-2c-3.314 0-6 2.686-6 6v3.752l-3-7.752h-7.257l.012.033-.022-.033 2.267 17h25v-13.821z" fill="#71caf0"/><path d="m32 47.179-6 4c-2-3-2.947-9.129-2.947-9.129l.015-.011-.068-.039h-1.943c.546 2.82 1.913 8.84 4.168 12.223l6.775-4.516z" fill="#489abd"/><path d="m32 49.909 6.819 4.546c2.228-3.343 3.649-9.151 4.272-12.143-.679-.131-1.372-.223-2.091-.223 0 0-1 6.089-3 9.089l-6-4z" fill="#489abd"/><path d="m13.143 11-2.75 2.688v.839l2.75-2.75z" fill="#fff"/><path d="m14 12-2.75 2.688v.839l2.75-2.75z" fill="#fff"/><path d="m37 27.75c-.965 0-1.75-.785-1.75-1.75s.785-1.75 1.75-1.75 1.75.785 1.75 1.75-.785 1.75-1.75 1.75zm0-2c-.138 0-.25.112-.25.25 0 .275.5.275.5 0 0-.138-.112-.25-.25-.25z"/><path d="m27 27.75c-.965 0-1.75-.785-1.75-1.75s.785-1.75 1.75-1.75 1.75.785 1.75 1.75-.785 1.75-1.75 1.75zm0-2c-.138 0-.25.112-.25.25 0 .275.5.275.5 0 0-.138-.112-.25-.25-.25z"/><path d="m57.077 42.587-3.527 1.176c-.359.119-.74.119-1.1 0l-3.527-1.176c-.74-.248-1.511-.248-2.224-.04-1.649-.884-3.474-1.378-5.341-1.434l-3.358-2.443v-1.35c2.806-1.689 4.892-4.516 5.664-7.846 2.132 2.541 4.548 4.827 7.23 6.777l3.519 2.559c.175.127.381.19.587.19.237 0 .475-.085.663-.251.351-.312.438-.824.211-1.234-3.188-5.74-4.874-12.244-4.874-18.811v-7.704c0-4.963-4.037-9-9-9-2.337 0-4.569.918-6.24 2.528-1.198-.335-2.456-.528-3.76-.528-7.72 0-14 6.28-14 14v4.351c-1.178.564-2 1.758-2 3.149 0 1.93 1.57 3.5 3.5 3.5h.678c.414 2.481 1.583 4.763 3.416 6.563.731.718 1.543 1.319 2.406 1.82v1.286l-3.204 2.331h-1.796c-3.444 0-6.309 2.504-6.887 5.785l-.79-2.106c.989-.491 1.677-1.502 1.677-2.679v-6c1.654 0 3-1.346 3-3s-1.346-3-3-3v-3c0-.553-.447-1-1-1h-1v-8.101c2.279-.465 4-2.484 4-4.899 0-2.757-2.243-5-5-5s-5 2.243-5 5c0 2.414 1.721 4.434 4 4.899v8.101h-1c-.553 0-1 .447-1 1v3h-2.573c-1.153 0-2.251.498-3.01 1.365-.76.868-1.107 2.021-.955 3.163l3.547 26.604c.066.497.49.868.991.868h42v-.013c.37 0 .723-.196.895-.54l3.105-6.211 3.105 6.211c.172.344.522.553.895.553.066 0 .134-.007.201-.021.443-.091.771-.469.797-.921.132-2.231.725-6.214 1.757-7.403 1.21-1.394 1.933-4.826 2.187-6.234.039-.219.058-.435.058-.658v-.628c0-.984-.399-1.948-1.096-2.645-1.008-1.008-2.474-1.355-3.827-.903zm-48.077-29.587c0-1.654 1.346-3 3-3s3 1.346 3 3-1.346 3-3 3-3-1.346-3-3zm35.062 34.431c.261 1.4.994 4.808 2.173 6.212.91 1.085 1.468 4.127 1.685 6.357h-2.92v-5h-2v5h-10v-10.953l4.445 2.964c.461.305 1.08.182 1.387-.277 1.646-2.47 2.624-6.742 2.989-8.589 1.025.085 2.031.313 2.984.702-.507.652-.805 1.457-.805 2.288v.62c0 .23.02.454.062.676zm-4.159-4.904c-.268 1.389-1.022 4.879-2.231 7.23l-4.191-2.794 4.287-5.145c.15-.178.232-.405.232-.639v-.036zm-17.903-15.527v-3c5.718 0 10.786-3.162 13.323-8.094 1.366 2.921 3.732 5.308 6.677 6.715v4.014c0 .814-.102 1.603-.277 2.365h-19.524c-.131-.651-.199-1.32-.199-2zm.038-5c.177-2.318.966-4.525 2.275-6.394 1.909-2.292 4.71-3.606 7.687-3.606.936 0 1.842.129 2.702.371-.124.116-.219.265-.271.436-1.678 5.486-6.656 9.176-12.393 9.193zm14.361-8.979c2.823 1.39 4.901 4.072 5.454 7.271-2.679-1.609-4.662-4.225-5.454-7.271zm8.101 10.979c.827 0 1.5.673 1.5 1.5s-.673 1.5-1.5 1.5h-.518c.004-.122.018-.242.018-.365v-2.635zm-2.5-20c3.859 0 7 3.141 7 7v7.704c0 5.54 1.141 11.039 3.324 16.113l-.255-.185c-2.341-1.703-4.471-3.676-6.375-5.856 1.341-.49 2.306-1.767 2.306-3.276 0-1.391-.822-2.585-2-3.149v-4.351c0-5.607-3.321-10.441-8.092-12.674 1.182-.852 2.611-1.326 4.092-1.326zm-10 2c6.617 0 12 5.383 12 12v4h-.002c0-.004.001-.007.001-.011-.005-6.61-5.388-11.989-11.999-11.989-3.572 0-6.934 1.577-9.273 4.392-1.59 2.263-2.507 4.876-2.688 7.608h-.039v-4c0-6.617 5.383-12 12-12zm-12.5 21c-.827 0-1.5-.673-1.5-1.5s.673-1.5 1.5-1.5h.5v3zm3.334 4h18.213c-1.575 3.473-4.949 5.927-8.86 5.998-2.716.037-5.263-.967-7.193-2.861-.93-.914-1.654-1.979-2.16-3.137zm9.163 8c.075 0 .151-.001.228-.002 1.322-.024 2.588-.283 3.775-.721v2.539l-4 4.8-4-4.8v-2.51c1.269.448 2.612.694 3.997.694zm-5.997 2.142v.036c0 .234.082.461.231.641l4.287 5.145-4.189 2.793c-1.202-2.356-1.931-5.874-2.186-7.265zm-15 .858v-6.184c.374-.133.711-.335 1-.596.289.26.626.463 1 .596v6.184c0 .552-.448 1-1 1s-1-.448-1-1zm5-9c0 .552-.448 1-1 1h-1c-.552 0-1-.448-1-1s.448-1 1-1h1c.552 0 1 .448 1 1zm-3-5v2.184c-.374.133-.711.336-1 .596-.289-.261-.626-.463-1-.596v-2.184zm-8.078 4.683c.38-.434.928-.683 1.505-.683h3.573c.552 0 1 .448 1 1s-.448 1-1 1h-3v2h2v6c0 .352.072.686.184 1h-3.575l-1.165-8.736c-.076-.572.098-1.148.478-1.581zm.954 12.317h5.431l2.693 7.182v1.818h-2v2h3c.553 0 1-.447 1-1v-7c0-2.757 2.243-5 5-5h1.203c.335 1.802 1.286 6.216 2.965 8.733.192.289.51.445.833.445.19 0 .383-.055.554-.168l4.445-2.963v10.953h-23.124zm54.124 1.763c0 .101-.007.197-.026.3-.373 2.067-1.052 4.502-1.729 5.282-.97 1.116-1.532 3.307-1.853 5.205l-1.604-3.207c-.341-.683-1.026-1.106-1.789-1.106s-1.448.424-1.789 1.105l-1.598 3.196c-.315-1.868-.874-4.021-1.848-5.181-.668-.797-1.354-3.232-1.738-5.297-.018-.101-.026-.202-.026-.305v-.62c0-.458.186-.906.51-1.23.468-.469 1.152-.632 1.78-.421l3.527 1.176c.191.064.386.112.583.144l3.045 2.029 1.109-1.664-1.3-.866 2.455-.818c.629-.211 1.312-.048 1.78.421.324.324.51.772.51 1.23v.627z"/></svg>